<svg width="380" height="417" viewBox="0 0 380 417" fill="none" xmlns="http://www.w3.org/2000/svg">
<g clip-path="url(#clip0_5_16)">
<path opacity="0.18" d="M36.7804 140.609C8.04399 172.578 -9.87343 219.689 5.84457 260.055C16.6498 287.816 41.0011 307.37 56.9657 332.383C69.6553 352.267 77.7952 376.522 96.898 389.998C106.326 396.617 117.583 399.919 128.786 402.238C147.8 406.222 168.28 407.592 185.971 399.427C203.861 391.193 216.468 374.386 232.639 363.01C253.386 348.431 278.902 343.442 302.595 334.765C326.289 326.088 350.462 311.283 358.485 286.839C363.069 272.871 361.706 257.673 363.597 243.066C367.708 211.244 387.263 179.562 377.102 149.202C366.18 116.558 327.084 104.775 293.441 103.532C259.799 102.288 223.45 106.23 195.118 87.6101C186.101 81.687 178.407 73.7193 168.972 68.5128C143.504 54.4604 123.75 72.8129 103.284 86.6616C79.6794 102.688 56.075 119.144 36.7804 140.609Z" fill="#68E1FD"/>
<path d="M313.756 64.3859C320.523 45.2688 314.296 25.4114 299.847 20.0332C285.398 14.655 268.199 25.7927 261.433 44.9099C254.666 64.027 260.893 83.8844 275.342 89.2626C289.79 94.6407 306.989 83.5031 313.756 64.3859Z" fill="#68E1FD"/>
<path d="M313.756 64.3859C320.523 45.2688 314.296 25.4114 299.847 20.0332C285.398 14.655 268.199 25.7927 261.433 44.9099C254.666 64.027 260.893 83.8844 275.342 89.2626C289.79 94.6407 306.989 83.5031 313.756 64.3859Z" fill="url(#paint0_linear_5_16)"/>
<path d="M115.554 69.8838C129.981 68.2008 139.959 51.3617 137.842 32.2726C135.724 13.1834 122.312 -0.927076 107.886 0.755871C93.4588 2.43882 83.4804 19.2779 85.598 38.3671C87.7157 57.4562 101.127 71.5667 115.554 69.8838Z" fill="#68E1FD"/>
<path d="M115.554 69.8838C129.981 68.2008 139.959 51.3617 137.842 32.2726C135.724 13.1834 122.312 -0.927076 107.886 0.755871C93.4588 2.43882 83.4804 19.2779 85.598 38.3671C87.7157 57.4562 101.127 71.5667 115.554 69.8838Z" fill="url(#paint1_linear_5_16)"/>
<path opacity="0.06" d="M104.195 45.0663C104.195 46.9212 104.195 49.1555 105.785 50.09C106.526 50.4515 107.342 50.6204 108.162 50.5819C112.554 50.7856 117.118 51.7833 120.495 54.6782C123.873 57.573 125.641 62.7654 123.647 66.7844C121.653 70.8034 116.624 72.4053 112.232 71.8713C106.566 71.2109 101.571 67.9015 96.8089 64.6835C94.0065 62.7864 91.1561 60.8472 89.0732 58.1491C82.5229 49.6544 81.5362 32.3066 88.1619 23.4957C98.2272 10.1248 104.147 38.1033 104.195 45.0663Z" fill="url(#paint2_linear_5_16)"/>
<path d="M76.8052 83.9854C91.0039 80.8719 99.3384 63.1176 95.4207 44.3301C91.503 25.5425 76.8168 12.8362 62.618 15.9497C48.4193 19.0631 40.0848 36.8174 44.0025 55.605C47.9202 74.3925 62.6064 87.0988 76.8052 83.9854Z" fill="#68E1FD"/>
<path d="M76.8052 83.9854C91.0039 80.8719 99.3384 63.1176 95.4207 44.3301C91.503 25.5425 76.8168 12.8362 62.618 15.9497C48.4193 19.0631 40.0848 36.8174 44.0025 55.605C47.9202 74.3925 62.6064 87.0988 76.8052 83.9854Z" fill="url(#paint3_linear_5_16)"/>
<path d="M255.284 315.113V396.898C255.284 396.898 253.742 410.894 238.291 411.976C229.302 412.595 195.68 414.197 169.164 415.419C150.136 416.29 134.761 416.993 134.761 416.993C134.761 416.993 119.002 414.126 119.002 400.488V321.331H119.063L120.763 321.246L255.284 315.113Z" fill="#68E1FD"/>
<path d="M252.029 329.376C252.029 329.376 163.847 344.876 137.241 338.095C123.976 334.723 118.563 327.486 119.427 320.628C120.29 313.771 127.539 307.201 139.543 305.346C139.543 305.346 218.236 290.914 242.074 301.833C252.118 306.428 255.462 312.049 255.976 317.003C256.675 323.811 252.029 329.376 252.029 329.376Z" fill="url(#paint4_linear_5_16)"/>
<path d="M255.99 317.003C255.476 312.049 252.132 306.428 242.087 301.833C218.25 290.914 139.557 305.346 139.557 305.346C127.553 307.201 120.317 313.721 119.44 320.628C118.447 312.766 125.929 304.636 139.557 302.536C139.557 302.536 218.25 288.104 242.087 299.023C254.092 304.517 256.531 311.459 255.99 317.003Z" fill="url(#paint5_linear_5_16)"/>
<path d="M219.243 273.11C219.061 273.829 218.799 274.525 218.462 275.182C214.529 282.996 199.606 293.177 199.606 293.177C199.606 293.177 185.855 296.31 174.858 297.751C163.86 299.191 159.03 295.214 159.03 295.214C156.93 293.571 154.668 292.158 152.281 290.999H152.247C148.698 289.219 144.939 287.92 141.065 287.134C130.102 284.928 133.363 276.658 137.097 277.08C140.832 277.501 152.315 266.596 157.406 271.156C162.497 275.716 170.938 265.409 182.943 253.64C194.947 241.871 210.781 252.748 210.781 252.748L214.893 252.417C215.993 252.324 217.1 252.464 218.144 252.829C219.189 253.195 220.149 253.778 220.963 254.542C221.778 255.306 222.43 256.235 222.878 257.269C223.326 258.304 223.56 259.422 223.567 260.554C223.567 262.613 223.183 264.538 222.429 265.697C220.953 267.958 219.875 270.467 219.243 273.11Z" fill="#3F3D56"/>
<path d="M209.911 260.526C209.911 260.526 212.172 256.127 215.393 257.497C218.613 258.868 219.846 266.484 219.846 266.484L209.911 260.526Z" fill="#091240"/>
<path d="M219.243 273.11L218.462 275.182C214.529 282.996 199.606 293.177 199.606 293.177C199.606 293.177 185.855 296.31 174.858 297.751C163.86 299.191 159.03 295.214 159.03 295.214C156.93 293.571 154.668 292.158 152.281 290.999C153.329 291.244 169.047 287.914 176.817 284.9C184.587 281.886 186.807 261.566 194.872 255.558C202.936 249.551 208.39 259.844 208.39 259.844L219.243 273.11Z" fill="#25233A"/>
<path d="M255.99 317.003C255.878 318.078 255.663 319.14 255.346 320.171C254.63 322.493 253.506 324.66 252.029 326.565C252.029 326.565 163.847 342.065 137.241 335.285C131.76 333.88 127.649 331.842 124.73 329.439C121.544 326.804 119.824 323.734 119.44 320.628C120.317 313.721 127.553 307.201 139.557 305.346C139.557 305.346 218.25 290.914 242.087 301.833C252.132 306.428 255.476 312.049 255.99 317.003Z" fill="#68E1FD"/>
<path d="M255.99 317.003C255.878 318.078 255.663 319.14 255.346 320.171C254.63 322.493 253.506 324.66 252.029 326.565C252.029 326.565 163.847 342.065 137.241 335.285C131.76 333.88 127.649 331.842 124.73 329.439C121.544 326.804 119.824 323.734 119.44 320.628C120.317 313.721 127.553 307.201 139.557 305.346C139.557 305.346 218.25 290.914 242.087 301.833C252.132 306.428 255.476 312.049 255.99 317.003Z" fill="url(#paint6_linear_5_16)"/>
<path d="M255.654 315.113L255.346 320.164C254.63 322.486 253.506 324.653 252.029 326.558C252.029 326.558 163.847 342.058 137.241 335.278C131.76 333.873 127.649 331.835 124.73 329.432C125.244 329.327 148.389 324.886 156.18 324.197C163.97 323.509 153.254 311.22 169.561 304.693C185.868 298.165 229.048 301.763 229.048 301.763L255.654 315.113Z" fill="url(#paint7_linear_5_16)"/>
<path d="M177.934 303.393C177.934 303.393 161.935 315.611 163.984 330.704C166.032 345.796 195.81 344.054 211.494 337.027C211.494 337.027 232.824 343.091 240.039 337.027C247.254 330.964 243.978 306.815 229.041 301.763C214.105 296.711 196.776 293.331 177.934 303.393Z" fill="#68E1FD"/>
<path d="M177.934 303.393C177.934 303.393 161.935 315.611 163.984 330.704C166.032 345.796 195.81 344.054 211.494 337.027C211.494 337.027 232.824 343.091 240.039 337.027C247.254 330.964 243.978 306.815 229.041 301.763C214.105 296.711 196.776 293.331 177.934 303.393Z" fill="url(#paint8_linear_5_16)"/>
<path opacity="0.19" d="M235.379 316.595C235.379 316.595 223.101 321.731 220.881 322.399C218.661 323.066 206.41 325.835 204.252 324.816C202.093 323.797 190.85 320.642 187.122 323.411C183.395 326.179 190.185 336.971 190.185 336.971L219.237 337.034L236.859 334.786L235.379 316.595Z" fill="url(#paint9_linear_5_16)"/>
<path d="M212.953 308.276C212.768 311.613 211.48 315.337 207.575 315.892C201.737 316.729 198.825 310.63 198.825 310.63C198.825 310.63 193.803 301.889 196.146 297.385C196.633 296.437 195.392 287.928 196.489 287.415C200.6 285.462 209.925 293.921 211.288 294.111C211.631 294.16 211.864 294.455 212.015 294.926C212.618 296.816 211.939 301.545 212.59 304.06C212.912 305.44 213.034 306.86 212.953 308.276V308.276Z" fill="url(#paint10_linear_5_16)"/>
<path opacity="0.19" d="M203.758 302.852C200.682 300.624 197.9 293.177 197.9 293.177L212.015 294.926C212.618 296.816 211.939 301.545 212.59 304.06C212.858 305.072 209.384 306.927 203.758 302.852Z" fill="url(#paint11_linear_5_16)"/>
<path d="M221.107 270.306C221.107 270.306 222.512 287.774 220.991 291.125C219.175 295.137 217.668 298.327 208.383 297.449C196.578 296.338 190.021 284.331 189.788 283.396C189.555 282.462 191.089 258.713 204.814 259.907C218.538 261.102 219.476 264.32 221.107 270.306Z" fill="url(#paint12_linear_5_16)"/>
<path d="M234.372 304.707C234.372 304.707 249.987 317.551 244.91 337.027C239.833 356.504 209.384 340.175 209.384 340.175L221.984 330.788C221.984 330.788 234.235 329.292 235.283 326.207C236.332 323.122 234.372 304.707 234.372 304.707Z" fill="#68E1FD"/>
<path d="M234.372 304.707C234.372 304.707 249.987 317.551 244.91 337.027C239.833 356.504 209.384 340.175 209.384 340.175L221.984 330.788C221.984 330.788 234.235 329.292 235.283 326.207C236.332 323.122 234.372 304.707 234.372 304.707Z" fill="url(#paint13_linear_5_16)"/>
<path d="M163.984 330.704C163.984 330.704 173.206 358.97 190.507 352.745C207.808 346.52 225.951 330.795 225.951 330.795L223.327 324.205C223.327 324.205 197.845 333.641 191.857 329.432C185.868 325.223 180.517 305.276 172.802 308.255C165.087 311.234 163.1 324.247 163.984 330.704Z" fill="#68E1FD"/>
<path d="M163.984 330.704C163.984 330.704 173.206 358.97 190.507 352.745C207.808 346.52 225.951 330.795 225.951 330.795L223.327 324.205C223.327 324.205 197.845 333.641 191.857 329.432C185.868 325.223 180.517 305.276 172.802 308.255C165.087 311.234 163.1 324.247 163.984 330.704Z" fill="url(#paint14_linear_5_16)"/>
<path d="M192.521 325.652C192.521 325.652 194.577 323.2 199.579 324.696C202.681 325.634 205.643 327.003 208.383 328.765C208.383 328.765 200.709 330.24 200.394 330.282C200.079 330.324 197.832 332.748 196.489 332.341C195.146 331.933 191.295 331.87 191.178 331.638C191.062 331.406 189.897 328.582 192.521 325.652Z" fill="url(#paint15_linear_5_16)"/>
<path d="M223.951 325.652C223.951 325.652 231.529 318.745 235.599 322.406L235.29 326.221C235.29 326.221 234.139 329.032 225.609 330.226L223.951 325.652Z" fill="url(#paint16_linear_5_16)"/>
<path d="M163.799 235.365L139.372 194.107" stroke="white" stroke-width="3.63" stroke-miterlimit="10" stroke-linecap="round"/>
<path d="M201.819 230.524L208.383 192.294" stroke="white" stroke-width="3.63" stroke-miterlimit="10" stroke-linecap="round"/>
<path d="M179.661 230.524L159.845 165.728" stroke="white" stroke-width="3.63" stroke-miterlimit="10" stroke-linecap="round"/>
<path d="M134.212 198.349C150.468 191.847 157.014 169.141 148.833 147.634C140.652 126.128 120.842 113.964 104.586 120.467C88.3304 126.969 81.7847 149.675 89.9658 171.182C98.1469 192.689 117.957 204.852 134.212 198.349Z" fill="#68E1FD"/>
<path d="M134.212 198.349C150.468 191.847 157.014 169.141 148.833 147.634C140.652 126.128 120.842 113.964 104.586 120.467C88.3304 126.969 81.7847 149.675 89.9658 171.182C98.1469 192.689 117.957 204.852 134.212 198.349Z" fill="url(#paint17_linear_5_16)"/>
<path opacity="0.06" d="M92.6498 131.06C92.6498 131.06 89.2925 138.726 88.8403 140.897C88.388 143.068 110.081 148.773 110.081 148.773C110.081 148.773 127.046 188.978 149.54 181.438C149.54 181.438 152.151 178.038 153.172 171.3C154.193 164.561 115.11 123.472 115.11 123.472L92.6498 131.06Z" fill="url(#paint18_linear_5_16)"/>
<path d="M157.829 101.212C175.166 99.1897 187.157 78.956 184.613 56.019C182.068 33.0819 165.951 16.1273 148.614 18.1497C131.277 20.1721 119.286 40.4058 121.83 63.3429C124.375 86.2799 140.492 103.235 157.829 101.212Z" fill="#68E1FD"/>
<path d="M157.829 101.212C175.166 99.1897 187.157 78.956 184.613 56.019C182.068 33.0819 165.951 16.1273 148.614 18.1497C131.277 20.1721 119.286 40.4058 121.83 63.3429C124.375 86.2799 140.492 103.235 157.829 101.212Z" fill="url(#paint19_linear_5_16)"/>
<path opacity="0.06" d="M139.256 78.9327C139.512 79.4445 139.895 79.8782 140.366 80.1904C140.713 80.3478 141.083 80.4429 141.462 80.4715L151.205 81.7081C150.671 75.0261 154.905 69.0117 159.16 63.9247C160.277 62.5967 161.449 61.1915 161.791 59.47C161.952 58.4296 161.952 57.3697 161.791 56.3293C161.38 52.1979 161.106 47.94 162.189 43.9421C163.271 39.9441 166.115 36.2132 170.041 35.1593L173.336 47.933C174.101 50.5169 174.583 53.1797 174.775 55.8726C174.777 58.8016 174.42 61.7192 173.713 64.557C171.429 75.3774 168.739 86.0995 165.642 96.7231C165.424 97.8205 164.895 98.8275 164.121 99.6179C163.155 100.433 161.798 100.482 160.551 100.433C153.014 100.138 145.71 97.5803 138.557 95.0509C136.501 94.3131 134.329 93.5262 132.808 91.9102C131.614 90.4656 130.734 88.777 130.225 86.9567C129.012 83.4436 124.326 72.5599 127.882 69.6229C132.452 65.8499 137.508 76.0168 139.256 78.9327Z" fill="url(#paint20_linear_5_16)"/>
<path d="M114.602 138.559C131.665 134.817 141.681 113.484 136.974 90.9091C132.267 68.3344 114.618 53.0671 97.5555 56.8087C80.4926 60.5502 70.4764 81.8837 75.1838 104.458C79.8912 127.033 97.5395 142.3 114.602 138.559Z" fill="#68E1FD"/>
<path d="M114.602 138.559C131.665 134.817 141.681 113.484 136.974 90.9091C132.267 68.3344 114.618 53.0671 97.5555 56.8087C80.4926 60.5502 70.4764 81.8837 75.1838 104.458C79.8912 127.033 97.5395 142.3 114.602 138.559Z" fill="url(#paint21_linear_5_16)"/>
<path d="M153.291 172.34C170.354 168.598 180.37 147.265 175.663 124.69C170.956 102.116 153.307 86.8485 136.244 90.59C119.182 94.3315 109.165 115.665 113.873 138.24C118.58 160.814 136.228 176.082 153.291 172.34Z" fill="#68E1FD"/>
<path d="M153.291 172.34C170.354 168.598 180.37 147.265 175.663 124.69C170.956 102.116 153.307 86.8485 136.244 90.59C119.182 94.3315 109.165 115.665 113.873 138.24C118.58 160.814 136.228 176.082 153.291 172.34Z" fill="url(#paint22_linear_5_16)"/>
<path d="M260.533 39.1803C263.722 20.2483 254.708 2.84651 240.4 0.312192C226.092 -2.22213 211.908 11.0708 208.719 30.0027C205.531 48.9346 214.544 66.3364 228.852 68.8708C243.16 71.4051 257.344 58.1122 260.533 39.1803Z" fill="#68E1FD"/>
<path d="M260.533 39.1803C263.722 20.2483 254.708 2.84651 240.4 0.312192C226.092 -2.22213 211.908 11.0708 208.719 30.0027C205.531 48.9346 214.544 66.3364 228.852 68.8708C243.16 71.4051 257.344 58.1122 260.533 39.1803Z" fill="url(#paint23_linear_5_16)"/>
<path d="M216.478 38.5705C217.857 19.4103 207.236 2.98973 192.755 1.89407C178.275 0.798414 165.419 15.4426 164.04 34.6028C162.661 53.763 173.282 70.1836 187.763 71.2792C202.243 72.3749 215.099 57.7307 216.478 38.5705Z" fill="#68E1FD"/>
<path d="M216.478 38.5705C217.857 19.4103 207.236 2.98973 192.755 1.89407C178.275 0.798414 165.419 15.4426 164.04 34.6028C162.661 53.763 173.282 70.1836 187.763 71.2792C202.243 72.3749 215.099 57.7307 216.478 38.5705Z" fill="url(#paint24_linear_5_16)"/>
<path d="M212.817 196.588C230.199 195.025 242.696 175.116 240.73 152.119C238.764 129.122 223.08 111.747 205.698 113.309C188.316 114.872 175.818 134.781 177.784 157.778C179.75 180.775 195.435 198.151 212.817 196.588Z" fill="#68E1FD"/>
<path d="M212.817 196.588C230.199 195.025 242.696 175.116 240.73 152.119C238.764 129.122 223.08 111.747 205.698 113.309C188.316 114.872 175.818 134.781 177.784 157.778C179.75 180.775 195.435 198.151 212.817 196.588Z" fill="url(#paint25_linear_5_16)"/>
<path opacity="0.06" d="M193.344 142.373C194.986 148.694 198.228 154.458 202.743 159.081C207.258 163.703 212.884 167.019 219.052 168.693C221.668 169.481 224.427 169.63 227.109 169.129C229.509 168.523 231.666 167.168 233.283 165.251C234.899 163.334 235.895 160.95 236.133 158.428C236.421 154.31 234.639 150.383 232.892 146.666C230.768 142.155 228.644 137.644 226.157 133.316C223.916 129.43 221.361 125.671 218.044 122.692C214.728 119.713 210.603 117.542 206.211 117.212C200.113 116.755 194.317 119.811 189.212 123.261C187.716 124.212 186.336 125.342 185.101 126.627C183.004 128.945 178.934 136.197 180.524 139.365C181.935 142.176 193.583 143.363 193.344 142.373Z" fill="url(#paint26_linear_5_16)"/>
<path d="M302.873 140.968C314.129 120.976 311.004 97.5168 295.893 88.5704C280.782 79.6239 259.407 88.5783 248.151 108.57C236.895 128.563 240.02 152.022 255.131 160.969C270.242 169.915 291.617 160.961 302.873 140.968Z" fill="#68E1FD"/>
<path d="M302.873 140.968C314.129 120.976 311.004 97.5168 295.893 88.5704C280.782 79.6239 259.407 88.5783 248.151 108.57C236.895 128.563 240.02 152.022 255.131 160.969C270.242 169.915 291.617 160.961 302.873 140.968Z" fill="url(#paint27_linear_5_16)"/>
<path d="M272.578 65.1683C271.964 68.8146 270.979 72.3848 269.638 75.8201C263.102 92.6831 248.85 103.384 234.495 100.841C217.304 97.7981 206.472 76.8951 210.302 54.1442C211.138 49.0966 212.689 44.2015 214.906 39.6139C222.025 25.0274 235.16 16.1252 248.398 18.472C265.575 21.5214 276.408 42.4244 272.578 65.1683Z" fill="#68E1FD"/>
<path d="M272.578 65.1683C271.964 68.8146 270.979 72.3848 269.638 75.8201C263.102 92.6831 248.85 103.384 234.495 100.841C217.304 97.7981 206.472 76.8951 210.302 54.1442C211.138 49.0966 212.689 44.2015 214.906 39.6139C222.025 25.0274 235.16 16.1252 248.398 18.472C265.575 21.5214 276.408 42.4244 272.578 65.1683Z" fill="url(#paint28_linear_5_16)"/>
<path opacity="0.06" d="M270.892 74.5484C264.356 91.4113 250.104 102.112 235.749 99.5688C218.558 96.5264 207.726 75.6234 211.556 52.8724C212.403 47.823 213.966 42.9278 216.194 38.3422C219.579 38.1244 221.484 43.9632 222.731 46.6964C226.657 55.2833 228.372 64.7585 227.712 74.2181C236.098 70.7898 245.438 70.7396 253.859 74.0776C254.981 74.635 256.193 74.9801 257.435 75.0964C258.488 75.0254 259.528 74.8104 260.525 74.457C263.927 73.5412 267.506 73.5727 270.892 74.5484V74.5484Z" fill="url(#paint29_linear_5_16)"/>
<path d="M221.354 93.5543C219.915 113.495 208.13 129.388 193.693 132.395C191.44 132.869 189.135 133.023 186.841 132.852C169.438 131.531 156.693 111.773 158.331 88.7835C159.969 65.7937 175.461 48.1719 192.837 49.4858C203.895 50.3219 213.077 58.6199 217.88 70.4099C219.875 75.3812 221.056 80.6563 221.374 86.0222C221.542 88.5302 221.536 91.0473 221.354 93.5543V93.5543Z" fill="#68E1FD"/>
<path d="M221.354 93.5543C219.915 113.495 208.13 129.388 193.693 132.395C191.44 132.869 189.135 133.023 186.841 132.852C169.438 131.531 156.693 111.773 158.331 88.7835C159.969 65.7937 175.461 48.1719 192.837 49.4858C203.895 50.3219 213.077 58.6199 217.88 70.4099C219.875 75.3812 221.056 80.6563 221.374 86.0222C221.542 88.5302 221.536 91.0473 221.354 93.5543V93.5543Z" fill="url(#paint30_linear_5_16)"/>
<path opacity="0.06" d="M222.594 92.2826C221.148 112.223 209.37 128.116 194.933 131.124C178.256 93.7089 219.127 69.1382 219.127 69.1382L222.621 84.7504C222.787 87.2586 222.778 89.7757 222.594 92.2826V92.2826Z" fill="url(#paint31_linear_5_16)"/>
<path d="M263.466 127.143C265.122 104.121 252.359 84.3898 234.957 83.0732C217.556 81.7565 202.106 99.3525 200.45 122.375C198.793 145.397 211.557 165.128 228.958 166.445C246.36 167.761 261.809 150.165 263.466 127.143Z" fill="#68E1FD"/>
<path d="M263.466 127.143C265.122 104.121 252.359 84.3898 234.957 83.0732C217.556 81.7565 202.106 99.3525 200.45 122.375C198.793 145.397 211.557 165.128 228.958 166.445C246.36 167.761 261.809 150.165 263.466 127.143Z" fill="url(#paint32_linear_5_16)"/>
<path d="M192.515 269.133C192.515 269.133 192.987 278.562 194.419 281.731C194.419 281.731 190.939 277.698 190.541 280.326C189.561 286.804 194.974 287.738 195.146 287.682C196.516 287.282 197.201 293.69 196.18 293.9C193.7 294.42 188.979 295.362 188.979 295.362L186.458 287.092L192.515 269.133Z" fill="#25233A"/>
<path opacity="0.19" d="M194.33 284.963C194.33 284.963 193.282 284.808 193.22 283.284C193.159 281.759 192.665 281.506 192.145 281.422C191.624 281.337 190.528 282.476 191.857 284.45C193.186 286.424 194.858 286.965 194.974 286.558C195.091 286.15 194.33 284.963 194.33 284.963Z" fill="url(#paint33_linear_5_16)"/>
<path d="M220.1 238.056L261.265 160.732" stroke="white" stroke-width="3.63" stroke-miterlimit="10" stroke-linecap="round"/>
<path d="M169.534 415.419C150.506 416.29 135.131 416.993 135.131 416.993C135.131 416.993 119.338 414.126 119.372 400.488V321.331H119.433C119.543 324.696 121.79 339.17 152.281 339.817L151.596 402.997C151.596 402.997 154.056 412.777 169.534 415.419Z" fill="#68E1FD"/>
<path d="M169.534 415.419C150.506 416.29 135.131 416.993 135.131 416.993C135.131 416.993 119.338 414.126 119.372 400.488V321.331H119.433C119.543 324.696 121.79 339.17 152.281 339.817L151.596 402.997C151.596 402.997 154.056 412.777 169.534 415.419Z" fill="url(#paint34_linear_5_16)"/>
<path d="M119.372 322.701C119.372 322.701 110.108 252.024 163.806 235.365C238.661 212.143 255.284 281.422 253.626 310.63" stroke="white" stroke-width="3.63" stroke-miterlimit="10" stroke-linecap="round"/>
<path opacity="0.18" d="M92.4648 61.4655C90.0039 63.4105 87.7774 65.6489 85.8323 68.1334C84.5364 69.5229 83.4779 71.1262 82.701 72.8761C82.1992 74.386 81.9108 75.9618 81.8446 77.5556C81.6785 78.6785 81.7415 79.8245 82.0296 80.9211C82.1779 81.4731 82.4821 81.9678 82.9039 82.3429C83.3258 82.718 83.8464 82.9567 84.4003 83.029C85.4417 83.0712 86.3325 82.3264 87.141 81.6238L102.832 67.6837C103.405 67.2621 103.844 66.6752 104.092 65.9974C104.2 65.2797 104.095 64.5455 103.791 63.8896C103.14 62.0557 102.277 58.5918 100.029 58.4583C97.4392 58.2756 94.4724 59.9759 92.4648 61.4655Z" fill="white"/>
<path opacity="0.18" d="M56.2326 23.5238C54.4753 25.3675 52.9388 27.4196 51.6556 29.6367C50.7708 30.8993 50.0991 32.3054 49.6686 33.7962C49.4334 35.0648 49.3757 36.3613 49.4973 37.6466C49.4911 38.566 49.6683 39.477 50.018 40.3236C50.2003 40.7458 50.4993 41.104 50.878 41.3538C51.2568 41.6036 51.6986 41.734 52.1489 41.7288C52.9681 41.5309 53.6876 41.0307 54.1702 40.3236L65.2016 27.3321C65.617 26.93 65.9037 26.4081 66.0238 25.8355C66.0325 25.2509 65.8676 24.6775 65.551 24.1913C64.8658 22.7861 63.7558 20.1231 61.9401 20.2777C59.864 20.4253 57.6715 22.1186 56.2326 23.5238Z" fill="white"/>
<path opacity="0.18" d="M105.47 1.49658C103.601 2.35822 101.839 3.44561 100.221 4.73568C99.1761 5.42446 98.25 6.28635 97.4803 7.2862C96.9378 8.18395 96.5225 9.15629 96.247 10.174C95.9736 10.8697 95.8452 11.6165 95.8702 12.3662C95.8858 12.7408 96.0094 13.1022 96.2252 13.4048C96.4411 13.7075 96.7396 13.9377 97.0829 14.0665C97.7683 14.1634 98.4642 13.9956 99.0357 13.5958L111.184 7.11054C111.616 6.93114 111.986 6.62273 112.246 6.22524C112.424 5.78024 112.467 5.29046 112.369 4.81999C112.225 3.54122 112.184 1.1804 110.766 0.744775C109.135 0.238886 106.977 0.864221 105.47 1.49658Z" fill="white"/>
<path opacity="0.18" d="M142.099 23.2077C139.788 25.0797 137.704 27.2286 135.891 29.6086C134.681 30.9406 133.699 32.4728 132.986 34.1405C132.524 35.5773 132.268 37.0756 132.226 38.5881C132.082 39.6551 132.155 40.7409 132.438 41.778C132.592 42.2928 132.889 42.7502 133.293 43.0936C133.698 43.437 134.191 43.6514 134.713 43.7102C135.7 43.7102 136.536 43.0076 137.269 42.3541L151.973 28.9411C152.519 28.5419 152.933 27.9802 153.158 27.3321C153.248 26.6541 153.138 25.9642 152.843 25.3507C152.212 23.6222 151.349 20.348 149.218 20.2496C146.772 20.1372 143.977 21.7884 142.099 23.2077Z" fill="white"/>
<path opacity="0.18" d="M123.887 107.136C122.533 109.24 121.429 111.502 120.598 113.874C119.979 115.257 119.587 116.737 119.44 118.252C119.444 119.515 119.624 120.771 119.975 121.982C120.135 122.868 120.47 123.709 120.961 124.456C121.214 124.822 121.567 125.105 121.975 125.269C122.383 125.432 122.828 125.47 123.257 125.376C124.013 125.026 124.612 124.396 124.935 123.613L133.158 109.04C133.485 108.575 133.669 108.019 133.685 107.445C133.579 106.883 133.315 106.365 132.925 105.956C131.986 104.754 130.465 102.393 128.752 102.885C126.813 103.454 125.018 105.513 123.887 107.136Z" fill="white"/>
<path opacity="0.18" d="M173.22 61.7817C171.558 63.6328 170.114 65.6774 168.917 67.8734C168.083 69.1324 167.462 70.5268 167.081 71.9978C166.881 73.2455 166.856 74.5159 167.005 75.7709C167.024 76.6684 167.22 77.5527 167.581 78.3706C167.772 78.7749 168.075 79.1131 168.451 79.344C168.827 79.5749 169.26 79.6883 169.698 79.6705C170.499 79.4466 171.191 78.9291 171.644 78.216L182.107 65.2245C182.501 64.8202 182.769 64.3038 182.874 63.742C182.869 63.1706 182.695 62.6142 182.374 62.147C181.634 60.805 180.517 58.2124 178.749 58.4091C176.701 58.655 174.597 60.3624 173.22 61.7817Z" fill="white"/>
<path opacity="0.18" d="M245.034 19.9264C242.579 20.0724 240.151 20.5158 237.798 21.2473C236.347 21.565 234.958 22.1277 233.687 22.9125C232.703 23.6721 231.828 24.571 231.09 25.5825C230.483 26.2374 230.016 27.0152 229.72 27.866C229.583 28.2925 229.571 28.7507 229.686 29.184C229.8 29.6173 230.036 30.0067 230.364 30.3041C231.09 30.7171 231.941 30.835 232.748 30.6344L249.083 28.7092C249.643 28.7002 250.187 28.5191 250.645 28.1893C251.015 27.7666 251.253 27.2407 251.33 26.6786C251.707 25.182 252.646 22.5261 251.241 21.4089C249.665 20.1302 246.986 19.8842 245.034 19.9264Z" fill="white"/>
<path opacity="0.18" d="M222.964 89.0505C220.873 90.3895 218.946 91.9793 217.222 93.7862C216.092 94.7722 215.131 95.9454 214.379 97.2571C213.864 98.4058 213.513 99.6245 213.337 100.876C213.118 101.745 213.078 102.652 213.221 103.539C213.297 103.981 213.498 104.391 213.801 104.716C214.103 105.041 214.493 105.267 214.92 105.365C215.751 105.373 216.555 105.062 217.174 104.494L230.617 94.812C231.106 94.5345 231.501 94.1104 231.748 93.5965C231.887 93.0416 231.861 92.4566 231.673 91.9172C231.309 90.4206 230.898 87.6242 229.144 87.3291C227.157 86.9637 224.656 88.0528 222.964 89.0505Z" fill="white"/>
<path opacity="0.18" d="M286.254 87.9123C283.81 87.6511 281.344 87.6888 278.909 88.0247C277.425 88.0969 275.963 88.4247 274.585 88.9943C273.494 89.5774 272.491 90.318 271.605 91.1935C270.911 91.7452 270.337 92.4392 269.919 93.2311C269.718 93.6305 269.635 94.0817 269.681 94.5289C269.728 94.976 269.901 95.3993 270.18 95.7465C270.834 96.2687 271.656 96.5195 272.482 96.4491L288.926 97.2361C289.199 97.3056 289.483 97.3182 289.762 97.2731C290.04 97.228 290.306 97.126 290.545 96.9734C290.784 96.8207 290.991 96.6204 291.153 96.3843C291.315 96.1482 291.429 95.8811 291.489 95.599C292.092 94.1937 293.435 91.7205 292.222 90.3855C290.797 88.8678 288.186 88.1652 286.254 87.9123Z" fill="white"/>
<path opacity="0.18" d="M89.9982 154.212C90.2939 156.715 90.8804 159.173 91.7454 161.533C92.0361 162.9 92.5979 164.191 93.3959 165.326C94.1939 166.461 95.211 167.416 96.3841 168.131C97.0617 168.7 97.8484 169.116 98.6931 169.353C99.1177 169.466 99.5651 169.449 99.9802 169.304C100.395 169.159 100.76 168.893 101.03 168.538C101.383 167.769 101.442 166.891 101.194 166.079C100.226 160.547 99.2573 155.02 98.2889 149.497C98.2413 148.927 98.029 148.384 97.6791 147.937C97.2497 147.571 96.7213 147.348 96.1648 147.298C94.6848 147.01 92.0538 146.216 91.0465 147.727C89.9023 149.483 89.8338 152.244 89.9982 154.212Z" fill="white"/>
<path opacity="0.18" d="M294.305 19.7648C291.854 19.9737 289.437 20.4808 287.104 21.2754C285.66 21.6288 284.284 22.2272 283.034 23.046C282.069 23.8321 281.217 24.7548 280.505 25.7863C279.925 26.4601 279.486 27.2494 279.217 28.1049C279.083 28.5376 279.079 29.0012 279.203 29.4368C279.328 29.8723 279.576 30.2599 279.916 30.5501C280.655 30.9411 281.509 31.0386 282.314 30.8241L298.587 28.4422C299.144 28.4163 299.681 28.2206 300.129 27.8801C300.502 27.4519 300.741 26.9181 300.814 26.3484C301.15 24.8448 302.027 22.1326 300.595 21.0857C298.937 19.8421 296.251 19.6664 294.305 19.7648Z" fill="white"/>
<path opacity="0.18" d="M183.491 4.1244C181.8 5.49289 180.275 7.06388 178.948 8.80387C178.061 9.77866 177.341 10.8998 176.817 12.1203C176.484 13.1726 176.298 14.2677 176.262 15.3734C176.157 16.1542 176.213 16.949 176.427 17.7061C176.537 18.082 176.753 18.4161 177.048 18.6661C177.343 18.9162 177.704 19.0711 178.085 19.1114C178.808 19.0339 179.475 18.6802 179.955 18.1207L190.713 8.28393C191.109 7.98781 191.41 7.57665 191.576 7.10352C191.641 6.60802 191.56 6.10387 191.343 5.65612C190.877 4.3914 190.247 1.99545 188.691 1.92519C186.91 1.87601 184.861 3.08452 183.491 4.1244Z" fill="white"/>
</g>
<defs>
<linearGradient id="paint0_linear_5_16" x1="244.899" y1="78.5763" x2="299.195" y2="49.6459" gradientUnits="userSpaceOnUse">
<stop/>
<stop offset="1" stop-opacity="0"/>
</linearGradient>
<linearGradient id="paint1_linear_5_16" x1="149.537" y1="94.8003" x2="100.844" y2="21.9483" gradientUnits="userSpaceOnUse">
<stop/>
<stop offset="1" stop-opacity="0"/>
</linearGradient>
<linearGradient id="paint2_linear_5_16" x1="83.6397" y1="45.9445" x2="124.476" y2="45.9445" gradientUnits="userSpaceOnUse">
<stop stop-color="#183866"/>
<stop offset="1" stop-color="#1A7FC1"/>
</linearGradient>
<linearGradient id="paint3_linear_5_16" x1="121.899" y1="80.3485" x2="61.1937" y2="46.7526" gradientUnits="userSpaceOnUse">
<stop/>
<stop offset="1" stop-opacity="0"/>
</linearGradient>
<linearGradient id="paint4_linear_5_16" x1="187.019" y1="313.44" x2="190.692" y2="347.639" gradientUnits="userSpaceOnUse">
<stop stop-color="#68E1FD"/>
<stop offset="0.2" stop-color="#5DB4CF"/>
<stop offset="0.46" stop-color="#50819B"/>
<stop offset="0.69" stop-color="#475C76"/>
<stop offset="0.87" stop-color="#41455E"/>
<stop offset="0.99" stop-color="#3F3D56"/>
</linearGradient>
<linearGradient id="paint5_linear_5_16" x1="188.171" y1="322.947" x2="185.837" y2="296.306" gradientUnits="userSpaceOnUse">
<stop stop-color="#68E1FD"/>
<stop offset="0.2" stop-color="#5DB4CF"/>
<stop offset="0.46" stop-color="#50819B"/>
<stop offset="0.69" stop-color="#475C76"/>
<stop offset="0.87" stop-color="#41455E"/>
<stop offset="0.99" stop-color="#3F3D56"/>
</linearGradient>
<linearGradient id="paint6_linear_5_16" x1="192.576" y1="291.49" x2="171.687" y2="403.507" gradientUnits="userSpaceOnUse">
<stop/>
<stop offset="1" stop-opacity="0"/>
</linearGradient>
<linearGradient id="paint7_linear_5_16" x1="181.757" y1="299.578" x2="202.896" y2="353.684" gradientUnits="userSpaceOnUse">
<stop/>
<stop offset="1" stop-opacity="0"/>
</linearGradient>
<linearGradient id="paint8_linear_5_16" x1="200.887" y1="351.607" x2="206.208" y2="308.568" gradientUnits="userSpaceOnUse">
<stop/>
<stop offset="1" stop-opacity="0"/>
</linearGradient>
<linearGradient id="paint9_linear_5_16" x1="186.019" y1="326.811" x2="236.859" y2="326.811" gradientUnits="userSpaceOnUse">
<stop stop-color="#183866"/>
<stop offset="1" stop-color="#1A7FC1"/>
</linearGradient>
<linearGradient id="paint10_linear_5_16" x1="195.523" y1="301.545" x2="212.974" y2="301.545" gradientUnits="userSpaceOnUse">
<stop stop-color="#ECC4D7"/>
<stop offset="0.42" stop-color="#EFD4D1"/>
<stop offset="1" stop-color="#F2EAC9"/>
</linearGradient>
<linearGradient id="paint11_linear_5_16" x1="197.9" y1="299.275" x2="212.604" y2="299.275" gradientUnits="userSpaceOnUse">
<stop stop-color="#183866"/>
<stop offset="1" stop-color="#1A7FC1"/>
</linearGradient>
<linearGradient id="paint12_linear_5_16" x1="189.767" y1="278.724" x2="221.696" y2="278.724" gradientUnits="userSpaceOnUse">
<stop stop-color="#ECC4D7"/>
<stop offset="0.42" stop-color="#EFD4D1"/>
<stop offset="1" stop-color="#F2EAC9"/>
</linearGradient>
<linearGradient id="paint13_linear_5_16" x1="184.265" y1="329.228" x2="255.473" y2="324.289" gradientUnits="userSpaceOnUse">
<stop/>
<stop offset="1" stop-opacity="0"/>
</linearGradient>
<linearGradient id="paint14_linear_5_16" x1="189.424" y1="371.856" x2="196.307" y2="319.358" gradientUnits="userSpaceOnUse">
<stop/>
<stop offset="1" stop-opacity="0"/>
</linearGradient>
<linearGradient id="paint15_linear_5_16" x1="195.468" y1="337.793" x2="200.68" y2="326.848" gradientUnits="userSpaceOnUse">
<stop stop-color="#ECC4D7"/>
<stop offset="0.42" stop-color="#EFD4D1"/>
<stop offset="1" stop-color="#F2EAC9"/>
</linearGradient>
<linearGradient id="paint16_linear_5_16" x1="225.588" y1="334.821" x2="231.436" y2="322.553" gradientUnits="userSpaceOnUse">
<stop stop-color="#ECC4D7"/>
<stop offset="0.42" stop-color="#EFD4D1"/>
<stop offset="1" stop-color="#F2EAC9"/>
</linearGradient>
<linearGradient id="paint17_linear_5_16" x1="185.78" y1="137.136" x2="92.3511" y2="166.964" gradientUnits="userSpaceOnUse">
<stop/>
<stop offset="0.62" stop-opacity="0.26"/>
<stop offset="1" stop-opacity="0"/>
</linearGradient>
<linearGradient id="paint18_linear_5_16" x1="88.8334" y1="152.947" x2="153.206" y2="152.947" gradientUnits="userSpaceOnUse">
<stop stop-color="#183866"/>
<stop offset="1" stop-color="#1A7FC1"/>
</linearGradient>
<linearGradient id="paint19_linear_5_16" x1="192.013" y1="83.1475" x2="133.156" y2="49.2491" gradientUnits="userSpaceOnUse">
<stop/>
<stop offset="1" stop-opacity="0"/>
</linearGradient>
<linearGradient id="paint20_linear_5_16" x1="126.573" y1="67.8032" x2="174.782" y2="67.8032" gradientUnits="userSpaceOnUse">
<stop stop-color="#183866"/>
<stop offset="1" stop-color="#1A7FC1"/>
</linearGradient>
<linearGradient id="paint21_linear_5_16" x1="153.728" y1="158.43" x2="92.6908" y2="84.4461" gradientUnits="userSpaceOnUse">
<stop/>
<stop offset="1" stop-opacity="0"/>
</linearGradient>
<linearGradient id="paint22_linear_5_16" x1="194.478" y1="120.096" x2="127.353" y2="134.703" gradientUnits="userSpaceOnUse">
<stop/>
<stop offset="1" stop-opacity="0"/>
</linearGradient>
<linearGradient id="paint23_linear_5_16" x1="205.79" y1="61.3333" x2="253.329" y2="19.3886" gradientUnits="userSpaceOnUse">
<stop/>
<stop offset="1" stop-opacity="0"/>
</linearGradient>
<linearGradient id="paint24_linear_5_16" x1="243.142" y1="79.1201" x2="172.643" y2="25.2219" gradientUnits="userSpaceOnUse">
<stop/>
<stop offset="1" stop-opacity="0"/>
</linearGradient>
<linearGradient id="paint25_linear_5_16" x1="218.357" y1="102.074" x2="202.667" y2="188.776" gradientUnits="userSpaceOnUse">
<stop/>
<stop offset="1" stop-opacity="0"/>
</linearGradient>
<linearGradient id="paint26_linear_5_16" x1="180.161" y1="143.293" x2="236.167" y2="143.293" gradientUnits="userSpaceOnUse">
<stop stop-color="#183866"/>
<stop offset="1" stop-color="#1A7FC1"/>
</linearGradient>
<linearGradient id="paint27_linear_5_16" x1="212.511" y1="125.615" x2="297.741" y2="124.533" gradientUnits="userSpaceOnUse">
<stop/>
<stop offset="1" stop-opacity="0"/>
</linearGradient>
<linearGradient id="paint28_linear_5_16" x1="184.621" y1="85.2142" x2="248.223" y2="58.0117" gradientUnits="userSpaceOnUse">
<stop/>
<stop offset="1" stop-opacity="0"/>
</linearGradient>
<linearGradient id="paint29_linear_5_16" x1="210.781" y1="69.1382" x2="270.892" y2="69.1382" gradientUnits="userSpaceOnUse">
<stop stop-color="#183866"/>
<stop offset="1" stop-color="#1A7FC1"/>
</linearGradient>
<linearGradient id="paint30_linear_5_16" x1="231.186" y1="131.201" x2="180.195" y2="84.2388" gradientUnits="userSpaceOnUse">
<stop/>
<stop offset="1" stop-opacity="0"/>
</linearGradient>
<linearGradient id="paint31_linear_5_16" x1="190.932" y1="100.131" x2="222.738" y2="100.131" gradientUnits="userSpaceOnUse">
<stop stop-color="#183866"/>
<stop offset="1" stop-color="#1A7FC1"/>
</linearGradient>
<linearGradient id="paint32_linear_5_16" x1="175.637" y1="150.107" x2="239.231" y2="122.905" gradientUnits="userSpaceOnUse">
<stop/>
<stop offset="1" stop-opacity="0"/>
</linearGradient>
<linearGradient id="paint33_linear_5_16" x1="191.22" y1="284.057" x2="194.981" y2="284.057" gradientUnits="userSpaceOnUse">
<stop stop-color="#183866"/>
<stop offset="1" stop-color="#1A7FC1"/>
</linearGradient>
<linearGradient id="paint34_linear_5_16" x1="238.792" y1="353.701" x2="85.6291" y2="376.356" gradientUnits="userSpaceOnUse">
<stop/>
<stop offset="1" stop-opacity="0"/>
</linearGradient>
<clipPath id="clip0_5_16">
<rect width="380" height="417" fill="white"/>
</clipPath>
</defs>
</svg>
